<?xml version="1.0" encoding="utf-8"?>
<!-- Generator: Adobe Illustrator 21.1.0, SVG Export Plug-In . SVG Version: 6.00 Build 0)  -->
<svg version="1.1" id="Слой_1" xmlns="http://www.w3.org/2000/svg" xmlns:xlink="http://www.w3.org/1999/xlink" x="0px" y="0px"
	 viewBox="0 0 41.7 58.5" style="enable-background:new 0 0 41.7 58.5;" xml:space="preserve">
<style type="text/css">
	.st0{fill:#97C89A;}
</style>
<g>
	<g transform="translate(50 50) scale(0.69 0.69) rotate(0) translate(-50 -50)">
		<g>
			<path class="st0" d="M35.7-8.1h-7.7l0.9-3.4c0.1-0.3,0-0.7-0.2-1c-0.2-0.3-0.6-0.4-0.9-0.4h-2l-0.2-2.7c-0.1-0.6-0.6-1-1.1-1H11
				c0.1-0.3,0.1-0.6,0.1-0.9c0-2.7-2.1-4.8-4.8-4.8s-4.8,2.1-4.8,4.8c0,0.3,0,0.7,0.1,0.9h-13.8c-0.6,0-1,0.4-1.1,1l-0.3,2.8h-2
				c-0.2,0-0.3,0-0.6,0.1l-4.7,2.4c-0.3,0.2-0.6,0.6-0.6,0.9c0,0.3,0.1,0.8,0.4,1l6.2,4.7L-8,22.9c0.1,0.4,0.6,0.9,1.1,0.9h1.2v1.9
				h-1.6c-0.6,0-1,0.3-1.1,0.9L-17,60.9c-0.1,0.3,0,0.7,0.2,1c0.2,0.2,0.6,0.4,0.9,0.4h44.2c0.3,0,0.7-0.1,0.9-0.4
				c0.2-0.3,0.3-0.7,0.2-1l-8.7-34.3c-0.1-0.4-0.6-0.9-1.1-0.9h-1.6v-1.9h1.2c0.6,0,1-0.3,1.1-0.9l7.2-28.7h7.1v23.7h-6.2v-2.8h2.1
				c0.7,0,1.1-0.4,1.1-1.1V-1.2c0-0.7-0.4-1.1-1.1-1.1c-0.7,0-1.1,0.4-1.1,1.1v14.1h-2.1c-0.7,0-1.1,0.4-1.1,1.1v5
				c0,0.7,0.4,1.1,1.1,1.1h8.4c0.7,0,1.1-0.4,1.1-1.1V-7C36.8-7.6,36.4-8.1,35.7-8.1z M-11.2-14.4H3.3c0.4,0,0.8-0.2,1-0.6
				c0.2-0.3,0.2-0.8-0.1-1.1c-0.3-0.4-0.4-0.9-0.4-1.4c0-1.3,1.1-2.6,2.6-2.6s2.6,1.1,2.6,2.6c0,0.6-0.1,1-0.4,1.4
				c-0.2,0.3-0.2,0.8-0.1,1.1c0.2,0.3,0.6,0.6,1,0.6h14.1l0.2,1.4h-35L-11.2-14.4z M26.8,59.9h-41.3l8.1-32.1h25.1L26.8,59.9z
				 M18.4,21.5H17c-0.7,0-1.1,0.4-1.1,1.1v3H-3.6v-1.9h13.8c0.7,0,1.1-0.4,1.1-1.1c0-0.7-0.4-1.1-1.1-1.1H-6.2l-6.6-26.2
				c-0.1-0.2-0.2-0.4-0.4-0.7l-5.1-3.9l2.9-1.6h2.7h37.6h1.6L18.4,21.5z"/>
			<path class="st0" d="M-5-5.4c-0.6,0.1-1,0.7-1,1.2l2.4,19.3c0.1,0.6,0.6,1,1.1,1h0.1c0.6-0.1,1-0.7,1-1.2L-3.8-4.4
				C-3.9-5.1-4.5-5.5-5-5.4z"/>
			<path class="st0" d="M17.3-5.4c-0.7-0.1-1.1,0.3-1.2,1l-2.4,19.3c-0.1,0.6,0.3,1.1,1,1.2h0.1c0.6,0,1-0.4,1.1-1l2.4-19.3
				C18.4-4.7,18-5.3,17.3-5.4z"/>
			<path class="st0" d="M6.2-6C5.5-6,5.1-5.5,5.1-4.9v19.8c0,0.7,0.4,1.1,1.1,1.1s1.1-0.4,1.1-1.1V-4.9C7.3-5.4,6.7-6,6.2-6z"/>
			<path class="st0" d="M14.4,31.9c-0.6,0.1-1,0.7-0.9,1.3L17.6,55c0.1,0.6,0.6,0.9,1.1,0.9c0.1,0,0.1,0,0.2,0
				c0.6-0.1,1-0.7,0.9-1.3l-4.1-21.8C15.6,32.1,15.1,31.8,14.4,31.9z"/>
			<path class="st0" d="M5.2,31.8h-7.7c-0.6,0-1,0.3-1.1,0.9l-4.1,21.8c-0.1,0.6,0.3,1.2,0.9,1.3c0.1,0,0.1,0,0.2,0
				c0.6,0,1-0.3,1.1-0.9L-1.6,34h6.7c0.7,0,1.1-0.4,1.1-1.1S5.8,31.8,5.2,31.8z"/>
		</g>
	</g>
</g>
</svg>
